HIERARCHY
ROOT root
{
	OFFSET 0.000000 0.000000 0.000000
	CHANNELS 6 Xposition Yposition Zposition Zrotation Yrotation Xrotation
	JOINT lhip
	{
		OFFSET 0.058581 -0.082280 -0.017664
		CHANNELS 3 Zrotation Yrotation Xrotation
		JOINT lknee
		{
			OFFSET 0.043451 -0.386469 0.008037
			CHANNELS 3 Zrotation Yrotation Xrotation
			JOINT lankle
			{
				OFFSET -0.014790 -0.426874 -0.037428
				CHANNELS 3 Zrotation Yrotation Xrotation
				JOINT ltoe
				{
					OFFSET 0.041054 -0.060286 0.122042
					CHANNELS 3 Zrotation Yrotation Xrotation
					End Site
					{
						OFFSET 0.000000 0.000000 0.000000
					}
				}
			}
		}
	}
	JOINT rhip
	{
		OFFSET -0.060310 -0.090513 -0.013543
		CHANNELS 3 Zrotation Yrotation Xrotation
		JOINT rknee
		{
			OFFSET -0.043257 -0.383688 -0.004843
			CHANNELS 3 Zrotation Yrotation Xrotation
			JOINT rankle
			{
				OFFSET 0.019056 -0.420046 -0.034562
				CHANNELS 3 Zrotation Yrotation Xrotation
				JOINT rtoe
				{
					OFFSET -0.034840 -0.062106 0.130323
					CHANNELS 3 Zrotation Yrotation Xrotation
					End Site
					{
						OFFSET 0.000000 0.000000 0.000000
					}
				}
			}
		}
	}
	JOINT lowerback
	{
		OFFSET 0.004439 0.124404 -0.038385
		CHANNELS 3 Zrotation Yrotation Xrotation
		JOINT upperback
		{
			OFFSET 0.004488 0.137956 0.026820
			CHANNELS 3 Zrotation Yrotation Xrotation
			JOINT chest
			{
				OFFSET -0.002265 0.056032 0.002855
				CHANNELS 3 Zrotation Yrotation Xrotation
				JOINT lowerneck
				{
					OFFSET -0.013390 0.211636 -0.033468
					CHANNELS 3 Zrotation Yrotation Xrotation
					JOINT upperneck
					{
						OFFSET 0.010113 0.088937 0.050410
						CHANNELS 3 Zrotation Yrotation Xrotation
						End Site
						{
							OFFSET 0.000000 0.000000 0.000000
						}
					}
				}
				JOINT lclavicle
				{
					OFFSET 0.071702 0.114000 -0.018898
					CHANNELS 3 Zrotation Yrotation Xrotation
					JOINT lshoulder
					{
						OFFSET 0.122921 0.045205 -0.019046
						CHANNELS 3 Zrotation Yrotation Xrotation
						JOINT lelbow
						{
							OFFSET 0.255332 -0.015649 -0.022946
							CHANNELS 3 Zrotation Yrotation Xrotation
							JOINT lwrist
							{
								OFFSET 0.265709 0.012698 -0.007375
								CHANNELS 3 Zrotation Yrotation Xrotation
								End Site
								{
									OFFSET 0.000000 0.000000 0.000000
								}
							}
						}
					}
				}
				JOINT rclavicle
				{
					OFFSET -0.082954 0.112472 -0.023707
					CHANNELS 3 Zrotation Yrotation Xrotation
					JOINT rshoulder
					{
						OFFSET -0.113228 0.046853 -0.008472
						CHANNELS 3 Zrotation Yrotation Xrotation
						JOINT relbow
						{
							OFFSET -0.260127 -0.014369 -0.031269
							CHANNELS 3 Zrotation Yrotation Xrotation
							JOINT rwrist
							{
								OFFSET -0.269108 0.006794 -0.006027
								CHANNELS 3 Zrotation Yrotation Xrotation
								End Site
								{
									OFFSET 0.000000 0.000000 0.000000
								}
							}
						}
					}
				}
			}
		}
	}
}
MOTION
Frames: 9
Frame Time: 0.033333
1.187761 0.161401 0.984391 -90.086368 3.305328 85.865640 0.373856 -0.182591 7.935654 -3.068609 -17.051270 0.753598 7.613170 9.031951 -17.251466 0.000000 -0.000000 0.000000 3.641205 -1.803142 2.322365 3.800154 4.603840 9.543006 2.431742 -3.388793 -13.369965 0.000000 -0.000000 0.000000 -3.696944 2.231649 3.668925 2.825813 -2.070207 4.132588 1.762650 -1.996767 6.345835 7.144566 -1.228543 9.047331 2.930680 -4.200594 11.724082 -24.180594 7.908028 3.573535 -63.183843 -5.466620 8.043325 10.647437 -26.417630 4.756513 -1.702020 -1.202111 -9.802815 22.220036 -6.996205 2.558113 63.316416 -0.983209 10.964194 -15.470427 28.404010 -2.706359 7.112024 0.957102 -10.899145 
1.188607 0.161374 0.984299 -90.191259 3.278830 85.993149 0.212219 -0.299099 7.533654 -3.013698 -16.996153 1.189074 7.663358 9.170161 -17.196395 0.000000 -0.000000 0.000000 3.627937 -1.459530 2.055850 3.822125 4.558269 9.611453 2.540853 -3.544244 -13.329693 0.000000 -0.000000 0.000000 -3.655410 2.215270 3.846023 2.807535 -2.091791 3.817819 1.716900 -2.130573 6.381711 7.104242 -2.006531 9.146551 2.681547 -4.887262 11.886361 -24.111227 8.027410 3.586083 -63.284003 -5.501905 8.131891 10.724170 -26.261086 4.847520 -1.701613 -0.999519 -9.774343 22.207036 -7.111791 2.383949 63.279863 -0.942068 11.112283 -15.486355 28.535718 -2.647486 7.152333 0.864206 -10.981074 
1.189165 0.161567 0.984281 -90.533809 3.313313 86.016566 0.168697 -0.299101 7.397859 -2.940706 -16.712698 1.362341 7.665210 9.269748 -17.292336 0.000000 -0.000000 0.000000 3.678484 -1.482462 1.939149 3.759433 4.759695 9.676254 2.637731 -3.468883 -13.193539 0.000000 -0.000000 0.000000 -3.606867 2.163682 3.954614 2.836646 -2.140939 3.721404 1.665964 -2.139978 6.485053 7.187429 -2.966915 9.024014 2.466707 -5.785586 12.306894 -24.221041 8.094798 3.490096 -63.049838 -5.571008 8.190369 10.493113 -26.189059 4.925692 -1.665397 -1.192886 -9.445910 22.146093 -7.021957 2.263389 63.252764 -0.820341 11.137522 -15.466605 28.658330 -2.751387 6.974253 0.782659 -10.826121 
1.190304 0.161265 0.984556 -90.664672 3.412751 85.643094 0.139003 -0.496291 7.422597 -2.964159 -16.431429 1.944997 7.691693 9.336395 -17.378298 0.000000 -0.000000 0.000000 3.726032 -1.335445 2.740333 3.736646 4.584802 8.752523 2.530488 -3.380103 -12.903125 0.000000 -0.000000 0.000000 -3.412585 2.175379 3.936109 2.814769 -2.492216 4.891638 1.492885 -2.242544 6.420021 7.045597 -3.712782 8.912909 2.710811 -6.625673 12.307642 -23.945562 7.397509 3.952283 -63.413999 -6.035300 8.214511 10.931100 -26.325427 4.448079 -1.962074 -1.196161 -10.150909 22.024993 -6.500279 1.940960 63.533749 -0.367983 10.911707 -15.641478 28.289870 -2.823942 7.022755 1.004607 -11.131235 
1.191422 0.160933 0.984632 -91.006881 3.442270 85.651178 0.113173 -0.442744 7.206594 -3.021265 -16.257332 2.182966 7.793626 9.495165 -17.475692 0.000000 -0.000000 0.000000 3.718122 -1.179240 2.308443 3.836083 4.724159 9.360816 2.570764 -3.322944 -12.897353 0.000000 -0.000000 0.000000 -3.463916 1.994451 4.127979 2.876859 -2.581179 4.803426 1.497858 -2.200759 6.394291 6.914665 -4.401886 9.340858 2.442906 -7.225091 12.783048 -23.898753 7.380845 4.067403 -63.545506 -6.049578 8.283277 11.072229 -26.485830 4.428764 -2.026975 -1.558402 -10.053495 21.924747 -6.417757 2.188141 63.568297 -0.313709 10.822843 -15.971597 28.756995 -3.179083 6.961783 1.082698 -11.218259 
1.192665 0.160605 0.984752 -91.401337 3.444575 85.728684 0.021045 -0.466130 6.845613 -3.062939 -16.173683 2.566685 7.883842 9.716465 -17.422309 0.000000 -0.000000 0.000000 3.681756 -0.997732 1.989586 3.875772 4.832544 9.587583 2.576973 -3.226726 -12.766313 0.000000 -0.000000 0.000000 -3.548188 1.856129 4.399673 2.937168 -2.690255 4.735199 1.440749 -2.256225 6.416415 6.894046 -5.381090 9.509375 2.464317 -8.217095 13.100396 -23.876597 7.363088 4.175062 -63.615087 -6.124574 8.459367 11.236681 -26.742315 4.417870 -1.863048 -1.571726 -10.202797 21.834306 -6.374693 1.970364 63.658397 -0.271620 10.867840 -15.979242 28.765495 -3.069732 6.954533 1.019263 -11.235614 
1.193321 0.160411 0.984667 -91.978943 3.512942 85.856784 0.015066 -0.226638 6.390926 -3.124278 -16.009754 3.122735 7.942476 9.889787 -17.653278 0.000000 -0.000000 0.000000 3.824425 -0.779932 1.659662 3.749246 5.036931 9.754625 2.647970 -3.122531 -12.814748 0.000000 -0.000000 0.000000 -3.653075 1.792112 4.388363 3.052394 -2.767584 4.800187 1.441918 -2.382116 6.646390 6.962846 -6.314092 9.575589 2.513017 -9.275302 12.932108 -23.821659 7.497281 3.972516 -63.680236 -6.282769 8.532227 10.990610 -26.921730 4.483761 -1.865096 -1.432190 -10.072637 22.018305 -6.487292 1.624173 63.454681 -0.392455 10.963821 -16.084733 29.203244 -3.248572 6.867954 1.059557 -11.130886 
1.195227 0.159761 0.984971 -92.387959 3.579566 85.784557 -0.090790 -0.276237 6.009179 -3.141067 -15.705607 3.801065 8.186523 10.089420 -17.873354 0.000000 -0.000000 0.000000 3.939799 -0.699415 1.327465 3.637016 5.236295 10.196341 2.671010 -3.030774 -12.786835 0.000000 -0.000000 0.000000 -3.617583 1.768162 4.933923 3.127598 -2.936742 4.846549 1.368378 -2.569902 6.565365 6.999955 -7.129527 9.668309 2.417457 -10.042887 13.269852 -23.857898 7.334579 3.989612 -63.663866 -6.487606 8.589409 11.052540 -27.282483 4.370226 -1.990519 -1.288859 -9.989841 22.074667 -6.471679 1.493505 63.450181 -0.336339 10.924447 -16.200042 29.235930 -3.398083 6.893616 1.100801 -10.918004 
1.195890 0.159426 0.984969 -93.024076 3.688890 85.766661 -0.085237 -0.199678 5.778361 -3.145900 -15.403860 4.210672 8.331708 10.369403 -17.976963 0.000000 -0.000000 0.000000 4.107269 -0.531954 1.214373 3.472651 5.446429 10.247444 2.741861 -2.806739 -12.693945 0.000000 -0.000000 0.000000 -3.652335 1.604139 5.165660 3.179213 -3.045210 4.938324 1.360943 -2.545011 6.701875 6.960239 -7.926488 9.670624 2.376357 -10.827271 13.413652 -23.797052 7.345051 4.043709 -63.699153 -6.630021 8.693981 11.129505 -27.878738 4.364398 -1.855853 -1.439782 -10.064458 22.024570 -6.413917 1.455112 63.504876 -0.286973 10.940980 -16.083571 29.204334 -3.217677 6.783088 0.968973 -10.758469 
